<svg width="48" height="48" viewBox="0 0 48 48" fill="none" xmlns="http://www.w3.org/2000/svg">
<path fill-rule="evenodd" clip-rule="evenodd" d="M23.9999 28.244L34.6059 38.85C35.1687 39.4128 35.932 39.729 36.7279 39.729C37.5238 39.729 38.2871 39.4128 38.8499 38.85C39.4127 38.2872 39.7289 37.5239 39.7289 36.728C39.7289 35.9321 39.4127 35.1688 38.8499 34.606L28.2399 24L38.8479 13.394C39.1265 13.1153 39.3474 12.7845 39.4981 12.4205C39.6488 12.0565 39.7263 11.6663 39.7262 11.2723C39.7261 10.8783 39.6484 10.4882 39.4975 10.1242C39.3467 9.76023 39.1256 9.42954 38.8469 9.15101C38.5683 8.87247 38.2375 8.65155 37.8734 8.50086C37.5094 8.35017 37.1192 8.27266 36.7252 8.27275C36.3312 8.27285 35.9411 8.35054 35.5771 8.5014C35.2132 8.65227 34.8825 8.87334 34.6039 9.15201L23.9999 19.758L13.3939 9.15201C13.1173 8.86535 12.7864 8.63665 12.4205 8.47925C12.0545 8.32185 11.6609 8.23891 11.2626 8.23526C10.8642 8.23162 10.4692 8.30734 10.1004 8.458C9.73166 8.60867 9.3966 8.83127 9.11479 9.11282C8.83298 9.39436 8.61006 9.72921 8.45904 10.0978C8.30803 10.4664 8.23194 10.8614 8.23521 11.2598C8.23848 11.6581 8.32105 12.0518 8.4781 12.4179C8.63516 12.784 8.86354 13.1151 9.14994 13.392L19.7599 24L9.15194 34.608C8.86554 34.8849 8.63716 35.216 8.4801 35.5821C8.32305 35.9482 8.24048 36.3419 8.23721 36.7402C8.23394 37.1386 8.31003 37.5336 8.46104 37.9022C8.61206 38.2708 8.83498 38.6056 9.11679 38.8872C9.3986 39.1687 9.73366 39.3913 10.1024 39.542C10.4712 39.6927 10.8662 39.7684 11.2646 39.7647C11.6629 39.7611 12.0565 39.6782 12.4225 39.5208C12.7884 39.3634 13.1193 39.1347 13.3959 38.848L23.9999 28.244Z" fill="white"/>
</svg>
